<mxfile host="app.diagrams.net" modified="2023-07-26T09:49:07.841Z" agent="Mozilla/5.0 (X11; Linux x86_64) AppleWebKit/537.36 (KHTML, like Gecko) Chrome/115.0.0.0 Safari/537.36" etag="2fLyshEWGWlHjswH1IHq" version="21.6.5" type="device">
  <diagram name="Page-1" id="VBJDxE9jmmHXY5iQviOq">
    <mxGraphModel dx="1007" dy="1677" grid="1" gridSize="10" guides="1" tooltips="1" connect="1" arrows="1" fold="1" page="1" pageScale="1" pageWidth="850" pageHeight="1100" math="0" shadow="0">
      <root>
        <mxCell id="0" />
        <mxCell id="1" parent="0" />
        <mxCell id="09m9z0guO-R0yb3yTY-k-1" value="User" style="shape=umlActor;verticalLabelPosition=bottom;verticalAlign=top;html=1;outlineConnect=0;" parent="1" vertex="1">
          <mxGeometry x="30" y="230" width="30" height="60" as="geometry" />
        </mxCell>
        <mxCell id="09m9z0guO-R0yb3yTY-k-15" style="edgeStyle=orthogonalEdgeStyle;rounded=0;orthogonalLoop=1;jettySize=auto;html=1;" parent="1" source="09m9z0guO-R0yb3yTY-k-2" target="09m9z0guO-R0yb3yTY-k-1" edge="1">
          <mxGeometry relative="1" as="geometry" />
        </mxCell>
        <mxCell id="nhghJqAbmbBJkboLFDBI-20" value="IP" style="edgeLabel;html=1;align=center;verticalAlign=middle;resizable=0;points=[];" parent="09m9z0guO-R0yb3yTY-k-15" vertex="1" connectable="0">
          <mxGeometry x="0.3273" y="-2" relative="1" as="geometry">
            <mxPoint as="offset" />
          </mxGeometry>
        </mxCell>
        <mxCell id="09m9z0guO-R0yb3yTY-k-16" style="edgeStyle=orthogonalEdgeStyle;rounded=0;orthogonalLoop=1;jettySize=auto;html=1;exitX=0.75;exitY=1;exitDx=0;exitDy=0;entryX=1;entryY=1;entryDx=0;entryDy=0;entryPerimeter=0;" parent="1" source="09m9z0guO-R0yb3yTY-k-2" target="09m9z0guO-R0yb3yTY-k-1" edge="1">
          <mxGeometry relative="1" as="geometry">
            <mxPoint x="60" y="260" as="targetPoint" />
            <Array as="points">
              <mxPoint x="90" y="290" />
              <mxPoint x="90" y="290" />
            </Array>
          </mxGeometry>
        </mxCell>
        <mxCell id="nhghJqAbmbBJkboLFDBI-21" value="Stats" style="edgeLabel;html=1;align=center;verticalAlign=middle;resizable=0;points=[];" parent="09m9z0guO-R0yb3yTY-k-16" vertex="1" connectable="0">
          <mxGeometry x="0.3273" y="3" relative="1" as="geometry">
            <mxPoint y="-3" as="offset" />
          </mxGeometry>
        </mxCell>
        <mxCell id="09m9z0guO-R0yb3yTY-k-2" value="LB" style="rounded=0;whiteSpace=wrap;html=1;direction=south;" parent="1" vertex="1">
          <mxGeometry x="170" y="200" width="60" height="120" as="geometry" />
        </mxCell>
        <mxCell id="09m9z0guO-R0yb3yTY-k-14" style="edgeStyle=orthogonalEdgeStyle;rounded=0;orthogonalLoop=1;jettySize=auto;html=1;exitX=0;exitY=0.5;exitDx=0;exitDy=0;entryX=0.25;entryY=0;entryDx=0;entryDy=0;" parent="1" source="09m9z0guO-R0yb3yTY-k-3" target="09m9z0guO-R0yb3yTY-k-2" edge="1">
          <mxGeometry relative="1" as="geometry" />
        </mxCell>
        <mxCell id="09m9z0guO-R0yb3yTY-k-3" value="" style="rounded=0;whiteSpace=wrap;html=1;" parent="1" vertex="1">
          <mxGeometry x="330" y="215" width="120" height="60" as="geometry" />
        </mxCell>
        <mxCell id="09m9z0guO-R0yb3yTY-k-4" value="" style="rounded=0;whiteSpace=wrap;html=1;" parent="1" vertex="1">
          <mxGeometry x="340" y="225" width="120" height="60" as="geometry" />
        </mxCell>
        <mxCell id="09m9z0guO-R0yb3yTY-k-18" style="edgeStyle=orthogonalEdgeStyle;rounded=0;orthogonalLoop=1;jettySize=auto;html=1;entryX=0.75;entryY=0;entryDx=0;entryDy=0;" parent="1" source="09m9z0guO-R0yb3yTY-k-5" target="09m9z0guO-R0yb3yTY-k-2" edge="1">
          <mxGeometry relative="1" as="geometry">
            <Array as="points">
              <mxPoint x="280" y="265" />
              <mxPoint x="280" y="290" />
            </Array>
          </mxGeometry>
        </mxCell>
        <mxCell id="09m9z0guO-R0yb3yTY-k-5" value="" style="rounded=0;whiteSpace=wrap;html=1;" parent="1" vertex="1">
          <mxGeometry x="350" y="235" width="120" height="60" as="geometry" />
        </mxCell>
        <mxCell id="09m9z0guO-R0yb3yTY-k-25" style="edgeStyle=orthogonalEdgeStyle;rounded=0;orthogonalLoop=1;jettySize=auto;html=1;entryX=1;entryY=0.5;entryDx=0;entryDy=0;entryPerimeter=0;" parent="1" source="09m9z0guO-R0yb3yTY-k-6" target="09m9z0guO-R0yb3yTY-k-22" edge="1">
          <mxGeometry relative="1" as="geometry" />
        </mxCell>
        <mxCell id="09m9z0guO-R0yb3yTY-k-6" value="Country API" style="rounded=0;whiteSpace=wrap;html=1;" parent="1" vertex="1">
          <mxGeometry x="360" y="245" width="120" height="60" as="geometry" />
        </mxCell>
        <mxCell id="09m9z0guO-R0yb3yTY-k-10" style="edgeStyle=orthogonalEdgeStyle;rounded=0;orthogonalLoop=1;jettySize=auto;html=1;entryX=0.5;entryY=0;entryDx=0;entryDy=0;exitX=0.55;exitY=0.95;exitDx=0;exitDy=0;exitPerimeter=0;entryPerimeter=0;" parent="1" source="09m9z0guO-R0yb3yTY-k-7" target="nhghJqAbmbBJkboLFDBI-4" edge="1">
          <mxGeometry relative="1" as="geometry">
            <Array as="points">
              <mxPoint x="276" y="30" />
              <mxPoint x="390" y="30" />
            </Array>
          </mxGeometry>
        </mxCell>
        <mxCell id="09m9z0guO-R0yb3yTY-k-7" value="ipapi.com" style="ellipse;shape=cloud;whiteSpace=wrap;html=1;" parent="1" vertex="1">
          <mxGeometry x="210" y="-80" width="120" height="80" as="geometry" />
        </mxCell>
        <mxCell id="09m9z0guO-R0yb3yTY-k-11" style="edgeStyle=orthogonalEdgeStyle;rounded=0;orthogonalLoop=1;jettySize=auto;html=1;entryX=0.5;entryY=0;entryDx=0;entryDy=0;exitX=0.55;exitY=0.95;exitDx=0;exitDy=0;exitPerimeter=0;entryPerimeter=0;" parent="1" source="09m9z0guO-R0yb3yTY-k-8" target="nhghJqAbmbBJkboLFDBI-4" edge="1">
          <mxGeometry relative="1" as="geometry" />
        </mxCell>
        <mxCell id="09m9z0guO-R0yb3yTY-k-8" value="countryapi.io" style="ellipse;shape=cloud;whiteSpace=wrap;html=1;" parent="1" vertex="1">
          <mxGeometry x="324" y="-80" width="120" height="80" as="geometry" />
        </mxCell>
        <mxCell id="09m9z0guO-R0yb3yTY-k-12" style="edgeStyle=orthogonalEdgeStyle;rounded=0;orthogonalLoop=1;jettySize=auto;html=1;entryX=0.5;entryY=0;entryDx=0;entryDy=0;exitX=0.55;exitY=0.95;exitDx=0;exitDy=0;exitPerimeter=0;entryPerimeter=0;" parent="1" source="09m9z0guO-R0yb3yTY-k-9" target="nhghJqAbmbBJkboLFDBI-4" edge="1">
          <mxGeometry relative="1" as="geometry">
            <mxPoint x="516" y="-6" as="sourcePoint" />
            <mxPoint x="390" y="216" as="targetPoint" />
            <Array as="points">
              <mxPoint x="540" y="30" />
              <mxPoint x="390" y="30" />
            </Array>
          </mxGeometry>
        </mxCell>
        <mxCell id="09m9z0guO-R0yb3yTY-k-9" value="exchangerate-api.com" style="ellipse;shape=cloud;whiteSpace=wrap;html=1;" parent="1" vertex="1">
          <mxGeometry x="430" y="-80" width="200" height="80" as="geometry" />
        </mxCell>
        <mxCell id="09m9z0guO-R0yb3yTY-k-19" value="" style="shape=cylinder3;whiteSpace=wrap;html=1;boundedLbl=1;backgroundOutline=1;size=15;align=center;" parent="1" vertex="1">
          <mxGeometry x="600" y="140" width="210" height="250" as="geometry" />
        </mxCell>
        <mxCell id="09m9z0guO-R0yb3yTY-k-27" style="edgeStyle=orthogonalEdgeStyle;rounded=0;orthogonalLoop=1;jettySize=auto;html=1;exitX=0;exitY=0.5;exitDx=0;exitDy=0;exitPerimeter=0;" parent="1" source="09m9z0guO-R0yb3yTY-k-22" target="09m9z0guO-R0yb3yTY-k-26" edge="1">
          <mxGeometry relative="1" as="geometry">
            <mxPoint x="330" y="430" as="sourcePoint" />
          </mxGeometry>
        </mxCell>
        <mxCell id="09m9z0guO-R0yb3yTY-k-22" value="" style="shape=cylinder3;whiteSpace=wrap;html=1;boundedLbl=1;backgroundOutline=1;size=15;direction=south;rotation=-180;verticalAlign=middle;" parent="1" vertex="1">
          <mxGeometry x="290" y="360" width="260" height="30" as="geometry" />
        </mxCell>
        <mxCell id="09m9z0guO-R0yb3yTY-k-28" style="edgeStyle=orthogonalEdgeStyle;rounded=0;orthogonalLoop=1;jettySize=auto;html=1;entryX=0.5;entryY=1;entryDx=0;entryDy=0;" parent="1" source="09m9z0guO-R0yb3yTY-k-26" target="nhghJqAbmbBJkboLFDBI-16" edge="1">
          <mxGeometry relative="1" as="geometry">
            <mxPoint x="580" y="472.5" as="targetPoint" />
          </mxGeometry>
        </mxCell>
        <mxCell id="xTlW_099o_t2BGy_bLSw-1" value="country stats" style="edgeLabel;html=1;align=center;verticalAlign=middle;resizable=0;points=[];" vertex="1" connectable="0" parent="09m9z0guO-R0yb3yTY-k-28">
          <mxGeometry x="-0.2819" y="-1" relative="1" as="geometry">
            <mxPoint as="offset" />
          </mxGeometry>
        </mxCell>
        <mxCell id="09m9z0guO-R0yb3yTY-k-26" value="Data loader" style="rounded=0;whiteSpace=wrap;html=1;" parent="1" vertex="1">
          <mxGeometry x="360" y="440" width="120" height="60" as="geometry" />
        </mxCell>
        <mxCell id="nhghJqAbmbBJkboLFDBI-9" style="edgeStyle=orthogonalEdgeStyle;rounded=0;orthogonalLoop=1;jettySize=auto;html=1;entryX=0.5;entryY=0;entryDx=0;entryDy=0;" parent="1" source="nhghJqAbmbBJkboLFDBI-4" target="09m9z0guO-R0yb3yTY-k-3" edge="1">
          <mxGeometry relative="1" as="geometry" />
        </mxCell>
        <mxCell id="nhghJqAbmbBJkboLFDBI-4" value="REDIS&lt;br&gt;(cache)" style="shape=cylinder3;whiteSpace=wrap;html=1;boundedLbl=1;backgroundOutline=1;size=15;" parent="1" vertex="1">
          <mxGeometry x="360" y="80" width="60" height="80" as="geometry" />
        </mxCell>
        <mxCell id="nhghJqAbmbBJkboLFDBI-11" value="Data loader" style="rounded=0;whiteSpace=wrap;html=1;" parent="1" vertex="1">
          <mxGeometry x="370" y="450" width="120" height="60" as="geometry" />
        </mxCell>
        <mxCell id="nhghJqAbmbBJkboLFDBI-12" value="Data loader" style="rounded=0;whiteSpace=wrap;html=1;" parent="1" vertex="1">
          <mxGeometry x="380" y="460" width="120" height="60" as="geometry" />
        </mxCell>
        <mxCell id="nhghJqAbmbBJkboLFDBI-13" value="Data loader" style="rounded=0;whiteSpace=wrap;html=1;" parent="1" vertex="1">
          <mxGeometry x="390" y="470" width="120" height="60" as="geometry" />
        </mxCell>
        <mxCell id="nhghJqAbmbBJkboLFDBI-14" value="Stats" style="rounded=0;whiteSpace=wrap;html=1;" parent="1" vertex="1">
          <mxGeometry x="400" y="480" width="120" height="60" as="geometry" />
        </mxCell>
        <mxCell id="nhghJqAbmbBJkboLFDBI-19" value="" style="edgeStyle=orthogonalEdgeStyle;rounded=0;orthogonalLoop=1;jettySize=auto;html=1;" parent="1" source="nhghJqAbmbBJkboLFDBI-16" target="nhghJqAbmbBJkboLFDBI-17" edge="1">
          <mxGeometry relative="1" as="geometry" />
        </mxCell>
        <mxCell id="nhghJqAbmbBJkboLFDBI-16" value="requested_country (Table)" style="rounded=0;whiteSpace=wrap;html=1;" parent="1" vertex="1">
          <mxGeometry x="645" y="310" width="120" height="60" as="geometry" />
        </mxCell>
        <mxCell id="nhghJqAbmbBJkboLFDBI-17" value="country_stats (Materialized View)" style="rounded=0;whiteSpace=wrap;html=1;" parent="1" vertex="1">
          <mxGeometry x="645" y="230" width="120" height="60" as="geometry" />
        </mxCell>
        <mxCell id="09m9z0guO-R0yb3yTY-k-20" style="edgeStyle=orthogonalEdgeStyle;rounded=0;orthogonalLoop=1;jettySize=auto;html=1;entryX=1;entryY=0.25;entryDx=0;entryDy=0;exitX=0;exitY=0.5;exitDx=0;exitDy=0;" parent="1" source="nhghJqAbmbBJkboLFDBI-17" target="09m9z0guO-R0yb3yTY-k-6" edge="1">
          <mxGeometry relative="1" as="geometry" />
        </mxCell>
        <mxCell id="xTlW_099o_t2BGy_bLSw-2" value="PostgreSQL" style="text;html=1;strokeColor=none;fillColor=none;align=center;verticalAlign=middle;whiteSpace=wrap;rounded=0;" vertex="1" parent="1">
          <mxGeometry x="675" y="180" width="60" height="30" as="geometry" />
        </mxCell>
        <mxCell id="xTlW_099o_t2BGy_bLSw-3" value="Kafka" style="text;html=1;strokeColor=none;fillColor=none;align=center;verticalAlign=middle;whiteSpace=wrap;rounded=0;" vertex="1" parent="1">
          <mxGeometry x="390" y="360" width="60" height="30" as="geometry" />
        </mxCell>
      </root>
    </mxGraphModel>
  </diagram>
</mxfile>
